<?xml version="1.0" encoding="utf-8"?>
<!-- Generator: Adobe Illustrator 24.0.1, SVG Export Plug-In . SVG Version: 6.00 Build 0)  -->
<svg version="1.1" id="Layer_1" xmlns="http://www.w3.org/2000/svg" xmlns:xlink="http://www.w3.org/1999/xlink" x="0px" y="0px"
	 viewBox="0 0 145.9 6.5" style="enable-background:new 0 0 145.9 6.5;" xml:space="preserve">
<style type="text/css">
	.st0{fill:#146A55;}
	.st1{fill:#FFBF00;}
</style>
<g>
	<polygon class="st0" points="124.1,1.8 128.4,6.2 0,6.2 0,1.8 	"/>
	<polygon class="st1" points="123.1,0.6 124.3,1.8 0,1.8 0,0.6 	"/>
	<polygon class="st0" points="128,1.8 132.3,6.2 129.1,6.2 124.8,1.8 	"/>
	<polygon class="st0" points="131.3,1.8 135.5,6.2 133.2,6.2 129,1.8 	"/>
	<polygon class="st0" points="141.3,1.8 145.6,6.2 137.4,6.2 133.1,1.8 	"/>
	<polygon class="st1" points="130.6,0.6 131.7,1.8 128.6,1.8 127.4,0.6 	"/>
	<polygon class="st1" points="126.9,0.6 128.1,1.8 124.5,1.8 123.3,0.6 	"/>
	<polygon class="st1" points="133.9,0.6 135,1.8 132.7,1.8 131.5,0.6 	"/>
	<polygon class="st1" points="140.2,0.6 141.3,1.8 136.9,1.8 135.7,0.6 	"/>
</g>
</svg>
