<?xml version="1.0" encoding="utf-8"?>
<!-- Generator: Adobe Illustrator 24.0.1, SVG Export Plug-In . SVG Version: 6.00 Build 0)  -->
<svg version="1.1" id="Layer_1" xmlns="http://www.w3.org/2000/svg" xmlns:xlink="http://www.w3.org/1999/xlink" x="0px" y="0px"
	 viewBox="0 0 303.5 315.4" style="enable-background:new 0 0 303.5 315.4;" xml:space="preserve">
<style type="text/css">
	.st0{fill:#008837;}
	.st1{fill:#FFFFFF;}
</style>
<g>
	<path class="st0" d="M266,157.3L155.5,267.8c-8.4,8.4-22,8.4-30.4,0L14.6,157.3c-8.4-8.4-8.4-22,0-30.4L125.1,16.4
		c8.4-8.4,22-8.4,30.4,0L266,126.9C274.4,135.3,274.4,148.9,266,157.3z"/>
	<g>
		<path class="st0" d="M152.5,279.2C152.5,279.2,152.5,279.2,152.5,279.2c0.1,0,0.1-0.1,0.1-0.1c0.2-0.2,0.5-0.5,0.7-0.7
			c0.2-0.2,0.5-0.5,0.8-0.7c0.5-0.4,1-0.8,1.5-1.1c0.5-0.3,1.1-0.6,1.7-0.7c1.1-0.3,2.2-0.2,3.2,0.2c1,0.4,1.9,1,2.7,1.8
			c0.7,0.7,1.3,1.5,1.7,2.4c0.4,0.9,0.5,1.9,0.4,2.9c-0.1,0.9-0.5,1.6-0.9,2.3c-0.5,0.7-1,1.4-1.6,2c-0.2,0.2-0.3,0.3-0.5,0.5
			c-0.2,0.2-0.3,0.3-0.5,0.5l-3.6,3.6l4.9,4.9l-3,3L146,285.6L152.5,279.2z M154.9,281.7l-3.4,3.4l4.2,4.2l3.6-3.6
			c0.7-0.7,1.2-1.5,1.4-2.3c0.2-0.8,0-1.6-0.9-2.4c-0.9-0.9-1.7-1.2-2.6-0.9C156.5,280.5,155.7,281,154.9,281.7L154.9,281.7z"/>
		<path class="st0" d="M168.7,269.6c0,1.1,0.5,2.2,1.5,3.3l8.2-8.2l2.5,2.5l-8.2,8.2c0.5,0.5,1,0.9,1.6,1.3c0.6,0.3,1.2,0.5,1.9,0.6
			c0.7,0.1,1.2-0.1,1.7-0.4c0.5-0.3,1-0.7,1.4-1.1c0,0,0.1-0.1,0.1-0.1c0,0,0.1-0.1,0.1-0.1l4.9-4.9l2.5,2.5l-5,5
			c-0.8,0.8-1.6,1.5-2.5,2.1c-0.9,0.6-1.9,1-3.1,1.1c-1.4,0.1-2.8-0.1-4-0.7c-1.2-0.6-2.4-1.4-3.4-2.3c-0.2-0.2-0.4-0.4-0.6-0.6
			c-0.2-0.2-0.4-0.4-0.6-0.6c-2.1-2.4-3.1-4.6-3.1-6.7c0-2.1,1.1-4.2,3.2-6.4l4.9-5l2.5,2.5l-4.9,4.9
			C169.2,267.4,168.7,268.5,168.7,269.6z"/>
		<path class="st0" d="M177.8,258.8l-2.5-2.5l12.2-12.2l2.5,2.5l-4.6,4.6l11.6,11.6l-3.1,3.1l-11.6-11.6L177.8,258.8z"/>
		<path class="st0" d="M197.7,234c0.2-0.1,0.3-0.3,0.4-0.4c0.1-0.1,0.3-0.3,0.4-0.4c0.6-0.5,1.2-1,1.8-1.3c0.7-0.4,1.4-0.6,2.2-0.6
			c0.7,0,1.4,0.1,2,0.4c0.6,0.3,1.2,0.6,1.7,1.1c0.1,0.1,0.2,0.2,0.3,0.3c0.1,0.1,0.2,0.2,0.3,0.3c1,1,1.6,2,1.9,3.2
			c0.2,1.2,0,2.4-0.7,3.6l9.4,2.4l-3.3,3.3l-8.6-2.4l-3.5,3.5l5.5,5.5l-3,3l-14.1-14.1L197.7,234z M199.5,237.2l-3.6,3.6l3.6,3.6
			l3.6-3.6c0,0,0.1,0,0.1-0.1c0,0,0.1-0.1,0.1-0.1c0.6-0.6,1.1-1.3,1.4-2c0.3-0.7,0.1-1.5-0.7-2.3c-0.8-0.8-1.6-1.1-2.3-0.7
			C200.8,236.1,200.1,236.6,199.5,237.2L199.5,237.2z"/>
		<path class="st0" d="M209.9,229.6c-0.7-1.4-1-2.7-1-4c0-1.3,0.4-2.6,1.2-4c0.3-0.5,0.6-1,1-1.4c0.4-0.5,0.8-0.9,1.2-1.3
			c0.4-0.5,0.9-0.9,1.4-1.3c0.5-0.4,1-0.8,1.6-1.1c1.3-0.8,2.6-1.2,3.9-1.2c1.3,0,2.7,0.3,4,1.1c0.6,0.3,1.2,0.7,1.8,1.2
			c0.6,0.5,1.2,0.9,1.7,1.5c0.6,0.6,1.1,1.1,1.6,1.7c0.5,0.6,0.9,1.2,1.2,1.8c0.7,1.4,1.1,2.7,1.1,4.1c0,1.3-0.5,2.7-1.3,4
			c-0.3,0.5-0.7,1-1.1,1.5c-0.4,0.5-0.8,1-1.3,1.4c-0.4,0.4-0.8,0.8-1.3,1.1c-0.5,0.4-0.9,0.7-1.4,1c-1.3,0.8-2.6,1.2-4,1.3
			c-1.3,0-2.7-0.3-4.1-1.1c-0.6-0.3-1.2-0.7-1.8-1.2c-0.6-0.5-1.2-1-1.7-1.5c-0.5-0.6-1.1-1.1-1.5-1.7S210.2,230.2,209.9,229.6
			L209.9,229.6z M214,227.5c0.3,0.4,0.6,0.9,0.9,1.3c0.3,0.4,0.7,0.8,1,1.1c0.4,0.4,0.8,0.7,1.2,1c0.4,0.3,0.8,0.6,1.2,0.9
			c0.7,0.5,1.5,0.7,2.3,0.9c0.8,0.1,1.6,0,2.4-0.4c0.3-0.1,0.6-0.3,0.9-0.5c0.3-0.2,0.6-0.4,0.8-0.7c0.2-0.2,0.5-0.5,0.7-0.8
			c0.2-0.3,0.4-0.6,0.5-0.9c0.4-0.8,0.5-1.6,0.4-2.4c-0.1-0.8-0.4-1.5-0.9-2.3c-0.3-0.4-0.5-0.8-0.9-1.2c-0.3-0.4-0.7-0.8-1-1.2
			c-0.4-0.4-0.7-0.7-1.1-1s-0.8-0.6-1.2-0.9c-0.7-0.5-1.5-0.8-2.3-0.9c-0.8-0.1-1.6,0-2.4,0.4c-0.3,0.1-0.6,0.3-0.9,0.5
			c-0.3,0.2-0.6,0.4-0.8,0.7c-0.2,0.2-0.5,0.5-0.7,0.8c-0.2,0.3-0.4,0.6-0.5,0.9c-0.4,0.8-0.5,1.6-0.4,2.4
			C213.3,226,213.6,226.8,214,227.5L214,227.5z"/>
		<path class="st0" d="M240.1,219.3c-0.9,0.6-2,0.9-3.4,0.9c-1.2,0-2.2-0.3-3-0.9c-0.9-0.6-1.7-1.3-2.5-2l-8.4-8.4l3-3l7.7,7.7
			c1.3,1.3,2.4,2.2,3.4,2.6c1,0.4,2.3-0.2,3.8-1.7l3.5-3.5l2.3,2.3l-3.8,3.8C241.9,217.9,241,218.7,240.1,219.3z"/>
		<path class="st0" d="M242.2,196.1c0,1.1,0.5,2.2,1.5,3.3l8.2-8.2l2.5,2.5l-8.2,8.2c0.5,0.5,1,0.9,1.6,1.3c0.6,0.3,1.2,0.5,1.9,0.6
			c0.7,0.1,1.2-0.1,1.7-0.4c0.5-0.3,1-0.7,1.4-1.1c0,0,0.1-0.1,0.1-0.1c0,0,0.1-0.1,0.1-0.1l4.9-4.9l2.5,2.5l-5,5
			c-0.8,0.8-1.6,1.5-2.5,2.1c-0.9,0.6-1.9,1-3.1,1.1c-1.4,0.1-2.8-0.1-4-0.7c-1.2-0.6-2.4-1.4-3.4-2.3c-0.2-0.2-0.4-0.4-0.6-0.6
			c-0.2-0.2-0.4-0.4-0.6-0.6c-2.1-2.4-3.1-4.6-3.1-6.7c0-2.1,1.1-4.2,3.2-6.4l4.9-5l2.5,2.5l-4.9,4.9
			C242.7,193.9,242.2,195,242.2,196.1z"/>
		<path class="st0" d="M261.6,187c1.2,1.2,2.3,1.9,3.3,2c1,0.2,2.2-0.4,3.4-1.7c1.3-1.3,1.8-2.4,1.7-3.4c-0.2-1-0.9-2.1-2-3.3
			l-8.5-8.5l3-3l8.5,8.5c0.2,0.2,0.3,0.3,0.5,0.5c0.2,0.2,0.3,0.3,0.5,0.5c0.5,0.5,0.9,1.1,1.3,1.6c0.4,0.6,0.6,1.2,0.7,2
			c0.2,1,0,2-0.3,2.9c-0.4,0.9-0.9,1.8-1.5,2.6c-0.2,0.3-0.5,0.6-0.7,0.9c-0.3,0.3-0.5,0.6-0.8,0.8c-0.2,0.2-0.5,0.5-0.8,0.8
			c-0.3,0.3-0.6,0.5-0.9,0.7c-0.8,0.7-1.7,1.2-2.6,1.6c-0.9,0.4-1.9,0.5-2.9,0.4c-0.7-0.1-1.4-0.4-2-0.7c-0.6-0.4-1.1-0.8-1.6-1.3
			c-0.2-0.1-0.3-0.3-0.5-0.5c-0.2-0.2-0.3-0.3-0.5-0.5l-8.5-8.5l2.9-2.9L261.6,187z"/>
		<path class="st0" d="M271.1,160.6l14.4,7.2l-7.2-14.4l4.3-4.3l14.1,14.1l-2.9,2.9l-10.7-11.2l7.4,14.6l-3.1,3.1l-14.8-7.4
			l11.4,10.8l-3,3l-14.1-14.1L271.1,160.6z"/>
	</g>
	<g>
		<path class="st1" d="M48,164.9v-58h29.8c0.5,0.1,1,0.1,1.5,0.1c0.5,0,1,0,1.5,0.1c4,0.2,7.7,0.9,11.2,2.3c3.5,1.3,5.7,4.3,6.8,8.9
			c0.9,4.1,0.7,7.6-0.8,10.5c-1.4,2.8-3.9,5.3-7.4,7.3c3.9,1.8,6.5,4.2,7.8,7.1c1.3,2.9,1.5,6.5,0.6,10.8c-1,4.4-3.2,7.3-6.6,8.8
			c-3.4,1.4-7.1,2.2-10.9,2.2c-0.3,0-0.5,0-0.8,0c-0.2,0-0.5,0-0.7,0H48z M60.2,130.7h17.8c2.3,0.1,4.2-0.4,5.7-1.3
			c1.5-0.9,2.3-2.7,2.3-5.3c0.1-2.5-0.7-4.3-2.3-5.2c-1.6-1-3.5-1.5-5.7-1.5l-17.8-0.1V130.7z M84,153.3c1.5-1,2.2-2.8,2.2-5.4
			c0-2.6-0.7-4.4-2.2-5.4c-1.5-1-3.4-1.5-5.8-1.5l-18-0.1v13.6h18C80.6,154.7,82.5,154.3,84,153.3z"/>
		<path class="st1" d="M199.6,117.2c-2.6,0.1-4.9,0.6-6.7,1.7c-1.8,1-2.7,3.1-2.7,6c0,2.3,0.8,3.9,2.3,4.8c1.5,1,3.3,1.5,5.4,1.5
			l16.2-0.1c0.6,0.1,1.2,0.1,1.9,0.1s1.3,0,1.9,0.1c1.9,0.1,3.7,0.4,5.6,0.9c1.8,0.5,3.4,1.4,4.8,2.8c1.3,1.2,2.3,2.6,2.9,4.3
			c0.6,1.7,1,3.4,1.2,5.2c0.1,0.5,0.1,1.1,0.1,1.6c0,0.5,0,1,0,1.6c-0.1,6.7-2,11.3-5.6,13.7c-3.6,2.4-8.5,3.6-14.7,3.6h-77.4v-10.3
			h75.5c2.7,0.1,5-0.4,7-1.3c2-0.9,2.8-3,2.4-6.2c-0.3-2.5-1.2-4.1-2.8-4.7c-1.6-0.6-3.5-0.9-5.7-1l-14.4-0.1
			c-6,0.1-10.7-1.1-14.2-3.6c-3.5-2.4-5.2-6.9-5.1-13.3c0.1-6.7,2-11.3,5.6-13.8c3.6-2.4,8.5-3.7,14.7-3.7l31.9-0.1v10.3H199.6z"/>
		<path class="st1" d="M164.5,116.7c-1.2-2.9-3.2-5.2-6.1-6.9c-1.6-0.9-3.2-1.6-5-2c-1.8-0.4-3.6-0.7-5.5-0.8c-1-0.1-2-0.2-3.1-0.2
			c-1,0-2,0-3.1,0c-0.1,0-0.1,0-0.2,0s-0.1,0-0.2-0.1h-26.5v10.3h12.2v0h14.1v0.1c3.1,0,5.8,0.5,8.2,1.5c2.4,1,3.5,3.4,3.4,7.1
			c0,3.3-1.1,5.6-3.2,6.7c-2.2,1.2-4.7,1.7-7.7,1.7h-14.9v0h-12.2v30.6h12.2v-20.3l14.8,0.1c0.6,0,1.3,0,1.9,0c0.6,0,1.3,0,1.9,0
			c2.5-0.1,4.9-0.4,7.3-0.8c2.4-0.5,4.6-1.4,6.7-2.9c2.4-1.8,4.2-4,5.2-6.7c1-2.7,1.5-5.5,1.5-8.4
			C166.3,122.7,165.7,119.6,164.5,116.7z"/>
	</g>
</g>
</svg>
