<?xml version="1.0" encoding="utf-8"?>
<!-- Generator: Adobe Illustrator 24.0.1, SVG Export Plug-In . SVG Version: 6.00 Build 0)  -->
<svg width="29px" height="83px" viewBox="0 0 29 83" version="1.1" xmlns="http://www.w3.org/2000/svg" xmlns:xlink="http://www.w3.org/1999/xlink" class="mt-auto"><title>size-icon-120ml</title><g id="⏺️-Icons-" stroke="none" stroke-width="1" fill="none" fill-rule="evenodd"><path d="M14.4765682,2 L15.7405682,2 C15.7405682,2 16.1505682,1.97138558 16.1655682,2.41638558 C16.1805682,2.86038558 17.4395682,16.7743856 17.4395682,16.7743856 C17.4395682,16.7743856 17.6915682,17.9443856 18.5215682,17.9603856 C19.3505682,17.9743856 19.8845682,17.9603856 19.8845682,17.9603856 C19.8845682,17.9603856 20.8925682,17.9443856 20.9815682,19.1443856 C21.0705682,20.3453856 20.9815682,25.1613856 20.9815682,25.1613856 C20.9815682,25.1613856 20.9515682,25.3533856 20.7585682,25.3983856 C20.5665682,25.4423856 20.2405682,25.5313856 20.2405682,25.5313856 L20.2405682,26.3913856 L20.9815682,26.4203856 C20.9815682,26.4203856 21.2925682,26.4943856 21.3075682,26.6273856 C21.3225682,26.7613856 21.3075682,26.9543856 21.3075682,26.9543856 C21.3075682,26.9543856 21.4105682,27.1613856 21.7215682,27.3833856 C22.0335682,27.6063856 24.1375682,29.4433856 24.1375682,29.4433856 C24.1375682,29.4433856 26.4295682,31.6953856 26.7255682,34.0073856 C27.0215682,36.3183856 26.9425682,76.5633856 26.9425682,76.5633856 C26.9425682,76.5633856 27.1005682,81.1073856 20.1855682,81.3053856 C17.1645682,81.3913856 11.8985682,81.3943856 8.76656818,81.3053856 C1.85156818,81.1073856 2.00956818,76.5633856 2.00956818,76.5633856 C2.00956818,76.5633856 1.93056818,36.3183856 2.22656818,34.0073856 C2.52356818,31.6953856 4.81556818,29.4433856 4.81556818,29.4433856 C4.81556818,29.4433856 6.91956818,27.6063856 7.23056818,27.3833856 C7.54156818,27.1613856 7.64556818,26.9543856 7.64556818,26.9543856 C7.64556818,26.9543856 7.63056818,26.7613856 7.64556818,26.6273856 C7.66056818,26.4943856 7.97156818,26.4203856 7.97156818,26.4203856 L8.71256818,26.3913856 L8.71256818,25.5313856 C8.71256818,25.5313856 8.38656818,25.4423856 8.19356818,25.3983856 C8.00056818,25.3533856 7.97156818,25.1613856 7.97156818,25.1613856 C7.97156818,25.1613856 7.88256818,20.3453856 7.97156818,19.1443856 C8.06056818,17.9443856 9.06756818,17.9603856 9.06756818,17.9603856 C9.06756818,17.9603856 9.60156818,17.9743856 10.4315682,17.9603856 C11.2605682,17.9443856 11.5125682,16.7743856 11.5125682,16.7743856 C11.5125682,16.7743856 12.7725682,2.86038558 12.7865682,2.41638558 C12.8015682,1.97138558 13.2115682,2 13.2115682,2 L14.4765682,2 Z" id="size-icon-120ml" stroke="#52a975" stroke-width="2.197"></path></g></svg>
