<?xml version="1.0" encoding="utf-8"?>
<!-- Generator: Adobe Illustrator 24.0.1, SVG Export Plug-In . SVG Version: 6.00 Build 0)  -->
<svg width="41px" height="75px" viewBox="0 0 41 75" version="1.1" xmlns="http://www.w3.org/2000/svg" xmlns:xlink="http://www.w3.org/1999/xlink" class="mt-auto"><title>size-icon-1l</title><g id="⏺️-Icons-" stroke="none" stroke-width="1" fill="none" fill-rule="evenodd"><path d="M37.285,18.786 C37.285,18.786 23.66,12.58 19.423,12.391 C18.723,12.36 17.861,12.338 16.913,12.323 L16.913,10.45 L15.99,10.45 L15.99,9.385 L16.593,9.385 L16.593,3.207 C16.593,2.543 16.05,2 15.386,2 L3.67,2 C3.005,2 2.462,2.543 2.462,3.207 L2.462,9.385 L3.066,9.385 L3.066,10.45 L2,10.45 L2,70.527 C2,72.089 3.279,73.368 4.841,73.368 L37.029,73.368 C38.591,73.368 39.87,72.089 39.87,70.527 L39.87,22.804 C39.87,21.242 38.706,19.434 37.285,18.786 Z" id="size-icon-1l" stroke="#52a975" stroke-width="2.126"></path></g></svg>
