<?xml version="1.0" encoding="utf-8"?>
<!-- Generator: Adobe Illustrator 24.0.1, SVG Export Plug-In . SVG Version: 6.00 Build 0)  #008837 -->
<svg width="44px" height="74px" viewBox="0 0 44 74" version="1.1" xmlns="http://www.w3.org/2000/svg" xmlns:xlink="http://www.w3.org/1999/xlink" class="mt-auto"><title>size-icon-205l</title><g id="⏺️-Icons-" stroke="none" stroke-width="1" fill="none" fill-rule="evenodd"><path d="M42.548,27.769 C42.548,27.423 42.357,27.087 42.007,26.764 L42.007,8.354 C42.357,7.973 42.548,7.577 42.548,7.169 C42.548,6.761 42.357,6.365 42.007,5.984 L42.007,5.898 L41.929,5.898 C39.708,3.658 31.75,2 22.274,2 C12.797,2 4.841,3.658 2.618,5.898 L2.54,5.898 L2.54,5.984 C2.189,6.365 2,6.761 2,7.169 C2,7.577 2.189,7.973 2.54,8.354 L2.54,26.764 C2.189,27.087 2,27.423 2,27.769 C2,28.115 2.189,28.452 2.54,28.774 L2.54,47.669 C2.189,47.973 2,48.288 2,48.612 C2,48.937 2.189,49.253 2.54,49.556 L2.54,69.073 C2.189,69.301 2,69.537 2,69.78 C2,71.485 11.077,72.867 22.274,72.867 C33.471,72.867 42.548,71.485 42.548,69.78 C42.548,69.537 42.357,69.301 42.007,69.073 L42.007,49.556 C42.357,49.253 42.548,48.937 42.548,48.612 C42.548,48.288 42.357,47.973 42.007,47.669 L42.007,28.774 C42.357,28.452 42.548,28.115 42.548,27.769 Z" id="size-icon-205l" stroke="#52a975" stroke-width="2.126"></path></g></svg>