<?xml version="1.0" encoding="utf-8"?>
<!-- Generator: Adobe Illustrator 24.0.1, SVG Export Plug-In . SVG Version: 6.00 Build 0)  #008837 -->
<svg width="65px" height="60px" viewBox="0 0 65 60" version="1.1" xmlns="http://www.w3.org/2000/svg" xmlns:xlink="http://www.w3.org/1999/xlink" class="mt-auto"><title>size-icon-20l</title><g id="⏺️-Icons-" stroke="none" stroke-width="1" fill="none" fill-rule="evenodd"><g id="size-icon-20l" transform="translate(2.000000, 2.000000)" stroke="#52a975" stroke-width="2.126"><path d="M37.022,8.333 L24.617,8.333 C23.258,8.333 22.156,7.231 22.156,5.871 C22.156,4.512 23.258,3.41 24.617,3.41 L37.022,3.41 C38.381,3.41 39.483,4.512 39.483,5.871 C39.483,7.231 38.381,8.333 37.022,8.333 Z" id="Path"></path><path d="M60.819,5.397 C60.784,4.541 60.412,3.762 59.84,3.184 L59.84,0.379 L55.39,0.379 L55.39,2.178 L44.636,2.178 L43.554,1.7408297e-13 L18.369,1.7408297e-13 L17.287,2.178 L11.457,2.178 L11.457,0.379 L2.557,0.379 L2.557,3.219 L3.219,3.219 L3.219,5.303 L2.557,5.303 L2.557,7.817 C1.446,9.179 0.508,11.562 0.441,13.253 C0.441,13.253 8.52651283e-13,24.334 8.52651283e-13,31.057 C8.52651283e-13,37.781 0.945,53.501 0.945,53.501 C1.051,55.269 2.586,56.716 4.358,56.716 L57.471,56.716 C59.242,56.716 60.765,55.268 60.856,53.499 C60.856,53.499 61.544,39.957 61.544,31.91 C61.544,23.862 60.819,5.397 60.819,5.397 Z" id="Path"></path></g></g></svg>