<?xml version="1.0" encoding="utf-8"?>
<!-- Generator: Adobe Illustrator 24.0.1, SVG Export Plug-In . SVG Version: 6.00 Build 0)  #008837 -->
<svg width="48px" height="69px" viewBox="0 0 48 69" version="1.1" xmlns="http://www.w3.org/2000/svg" xmlns:xlink="http://www.w3.org/1999/xlink" class="mt-auto"><title>size-icon-4l</title><g id="⏺️-Icons-" stroke="none" stroke-width="1" fill="none" fill-rule="evenodd"><g id="size-icon-4l" transform="translate(2.000000, 2.000000)" stroke="#52a975" stroke-width="2.126"><path d="M19.643,9.97018533 C19.672,9.61718533 19.805,9.26018533 20.06,8.94018533 C21.076,7.66818533 23.236,7.27118533 24.701,6.77018533 C25.608,6.45818533 26.525,6.20718533 27.458,5.98218533 C30.203,5.31818533 34.369,4.94018533 35.695,5.22418533 C37.021,5.50818533 38.157,9.39018533 38.631,11.6621853 C39.103,13.9341853 39.578,16.5861853 38.631,17.4381853 C37.683,18.2901853 36.263,17.4381853 36.263,17.4381853 C36.263,17.4381853 25.516,12.7041853 21.303,11.9931853 C20.226,11.8121853 19.568,10.9021853 19.643,9.97018533 Z" id="Path"></path><path d="M44.122,25.5811853 C44.122,23.2271853 44.032,20.8681853 43.816,18.5251853 C43.447,14.4841853 42.916,10.4221853 41.904,6.48718533 C41.483,4.84618533 41.372,2.88618533 40.392,1.45318533 C39.082,-0.461814674 36.546,0.00918532581 34.564,0.169185326 C31.788,0.394185326 29.029,0.993185326 26.322,1.62618533 C18.215,3.51918533 15.44,5.33718533 14.611,6.04718533 C14.418,6.00518533 14.219,5.98218533 14.013,5.98218533 L13.57,5.98218533 L13.57,4.46618533 L12.766,4.46618533 L12.766,0.657185326 C10.965,0.487185326 9.058,0.395185326 7.086,0.395185326 C5.111,0.395185326 3.206,0.487185326 1.404,0.657185326 L1.404,4.46618533 L0.599,4.46618533 L0.599,7.08618533 C0.225,7.56818533 1.5063506e-12,8.16918533 1.5063506e-12,8.82318533 L1.5063506e-12,62.9811853 C1.5063506e-12,64.5431853 1.278,65.8221853 2.841,65.8221853 L41.281,65.8221853 C42.843,65.8221853 44.122,64.5431853 44.122,62.9811853 L44.122,26.0591853 C44.122,26.0011853 44.117,25.9431853 44.113,25.8851853 C44.117,25.7851853 44.122,25.6851853 44.122,25.5811853 Z" id="Path"></path></g></g></svg>
