<?xml version="1.0" encoding="utf-8"?>
<!-- Generator: Adobe Illustrator 24.0.1, SVG Export Plug-In . SVG Version: 6.00 Build 0)  -->
<svg version="1.1" id="Layer_1" xmlns="http://www.w3.org/2000/svg" xmlns:xlink="http://www.w3.org/1999/xlink" x="0px" y="0px"
	 viewBox="0 0 29 61" style="enable-background:new 0 0 29 61;" xml:space="preserve">
<style type="text/css">
	.st0{fill:none;stroke:#52a975;stroke-width:2.197;}
</style>
<title>size-icon-80ml</title>
<g id="_x23FA__xFE0F_-Icons-">
	<path id="size-icon-80ml" class="st0" d="M23.9,59.4c3-0.4,2.7-4.2,2.7-4.2v-3.4L27,20.5c0,0,0-0.7-0.5-1c-0.5-0.4-2.4-1.3-2.4-1.3
		s0-0.8-0.6-0.9c-0.6-0.1-1.6-0.3-1.6-0.3v-0.9c0,0-0.1-0.4-0.5-0.4v-1c0,0,3.4-0.3,3.6-0.5c0.1-0.2,0-0.7,0-0.7l-0.3-0.6l0-9.3
		c0,0,0-1.4-2.4-1.5C20.5,2,8.5,2,6.9,2.1C4.5,2.2,4.4,3.6,4.4,3.6l0,9.3l-0.3,0.6c0,0-0.1,0.5,0,0.7c0.1,0.2,3.6,0.5,3.6,0.5v1
		c-0.4,0-0.5,0.4-0.5,0.4v0.9c0,0-1,0.2-1.6,0.3c-0.6,0.1-0.6,0.9-0.6,0.9s-1.9,1-2.4,1.3c-0.5,0.4-0.5,1-0.5,1l0.4,31.3v3.4
		c0,0-0.3,3.8,2.7,4.2C7.2,59.6,21.6,59.6,23.9,59.4z"/>
</g>
</svg>
