<?xml version="1.0" encoding="utf-8"?>
<!-- Generator: Adobe Illustrator 24.0.1, SVG Export Plug-In . SVG Version: 6.00 Build 0)  -->
<svg version="1.1" id="Layer_1" xmlns="http://www.w3.org/2000/svg" xmlns:xlink="http://www.w3.org/1999/xlink" x="0px" y="0px"
	 viewBox="0 0 50 50" style="enable-background:new 0 0 50 50;" xml:space="preserve">
<style type="text/css">
	.st0{fill:#333333;}
</style>
<g id="surface1">
	<path class="st0" d="M21.2,21.9h2.9v1.4h-2.9V21.9L21.2,21.9z"/>
	<path class="st0" d="M45.7,19.8l-4.9-0.7c-0.9-0.5-1.8-1-2.8-1.5c-3.1-1.4-6.5-2.2-10-2.1h-0.8c-4.1,0-8.1,1-11.6,3l-2.5,1.3
		c-2.9,0-5.7,0.8-8.2,2.2c-1,0.6-1.7,1.7-1.7,2.8v4.3c0,0.4,0.3,0.7,0.7,0.7h2.4c0.8,2.2,3.2,3.4,5.5,2.6C13,32,14,31,14.4,29.8
		h19.2c0.8,2.2,3.2,3.4,5.5,2.6c1.2-0.4,2.2-1.4,2.6-2.6H42c0.1,0,0.2,0,0.3-0.1l2.3-0.9c1-0.4,1.7-1.4,1.7-2.5v-5.8
		C46.3,20.1,46,19.8,45.7,19.8z M13.2,29c-0.3,1.6-1.8,2.6-3.4,2.2c-1.6-0.3-2.6-1.8-2.2-3.4c0.3-1.6,1.8-2.6,3.4-2.2
		c1.3,0.3,2.3,1.4,2.3,2.8C13.3,28.6,13.3,28.8,13.2,29z M26.2,28.4H14.7c0-2.4-1.9-4.3-4.3-4.3S6.1,26,6.1,28.4H4.7v-3.5
		c0-0.7,0.3-1.3,0.9-1.6c2.3-1.3,5-2,7.7-2h12.9C26.2,21.3,26.2,28.4,26.2,28.4z M26.2,19.8H16.1l0.1-0.1c3.1-1.7,6.5-2.6,10-2.8
		V19.8z M27.6,16.9H28c2.9,0,5.8,0.5,8.4,1.6l-1.2,1.3h-7.6V16.9L27.6,16.9z M40.5,29c-0.3,1.6-1.8,2.6-3.4,2.2
		c-1.6-0.3-2.6-1.8-2.2-3.4c0.3-1.6,1.8-2.6,3.4-2.2c1.3,0.3,2.3,1.4,2.3,2.8C40.6,28.6,40.5,28.8,40.5,29z M44.9,21.9h-2.1v1.4h2.1
		v2.9c0,0.5-0.3,1-0.8,1.2L42,28.2c0-0.1,0-0.1,0-0.2s0-0.1,0-0.2s0-0.1,0-0.2c0-0.1,0-0.1,0-0.2c0-0.1,0-0.1-0.1-0.2
		c0-0.1,0-0.1-0.1-0.2c0-0.1-0.1-0.1-0.1-0.2c0-0.1,0-0.1-0.1-0.2c0-0.1-0.1-0.1-0.1-0.2c0-0.1-0.1-0.1-0.1-0.2
		c0-0.1-0.1-0.1-0.1-0.2c0-0.1-0.1-0.1-0.1-0.2s-0.1-0.1-0.1-0.2S41,25.5,41,25.4s-0.1-0.1-0.1-0.1s-0.1-0.1-0.1-0.2
		S40.7,25,40.7,25c-0.1,0-0.1-0.1-0.2-0.1c-0.1,0-0.1-0.1-0.2-0.1c-0.1,0-0.1-0.1-0.2-0.1c-0.1,0-0.1-0.1-0.2-0.1
		c-0.1,0-0.1-0.1-0.2-0.1c-0.1,0-0.1-0.1-0.2-0.1c-0.1,0-0.1-0.1-0.2-0.1c-0.1,0-0.1-0.1-0.2-0.1s-0.1,0-0.2-0.1
		c-0.1,0-0.2,0-0.2-0.1c-0.1,0-0.1,0-0.2,0c-0.1,0-0.2,0-0.3,0s-0.1,0-0.2,0c-0.1,0-0.3,0-0.4,0c-2.4,0-4.3,1.9-4.3,4.3h-5.7v-7.2
		h7.9c0.2,0,0.4-0.1,0.5-0.2l1.9-1.9c0.8,0.4,1.5,0.8,2.3,1.2c0.1,0.1,0.2,0.1,0.3,0.1l4.4,0.6L44.9,21.9L44.9,21.9z"/>
</g>
</svg>
