<?xml version="1.0" encoding="utf-8"?>
<!-- Generator: Adobe Illustrator 24.0.1, SVG Export Plug-In . SVG Version: 6.00 Build 0)  -->
<svg version="1.1" id="Layer_1" xmlns="http://www.w3.org/2000/svg" xmlns:xlink="http://www.w3.org/1999/xlink" x="0px" y="0px"
	 viewBox="0 0 50 50" style="enable-background:new 0 0 50 50;" xml:space="preserve">
<style type="text/css">
	.st0{fill:#FFFFFF;}
</style>
<g>
	<path class="st0" d="M33.8,24.5c0-0.3-0.3-0.5-0.5-0.5s-0.5,0.3-0.5,0.5l0,0l0.1,1.6c0,0.3,0.3,0.5,0.5,0.5l0,0
		c0.3,0,0.5-0.3,0.5-0.5l0,0L33.8,24.5z"/>
	<path class="st0" d="M34.8,14.5c-1.2,0-2.2,1-2.2,2.2c0,0.3,0.3,0.5,0.5,0.5s0.5-0.3,0.5-0.5c0-0.7,0.5-1.2,1.2-1.2h1.5
		c0.3,0,0.5-0.3,0.5-0.5s-0.3-0.5-0.5-0.5L34.8,14.5L34.8,14.5z"/>
	<path class="st0" d="M40.9,14.5h-2.6c-0.3,0-0.5,0.3-0.5,0.5s0.3,0.5,0.5,0.5h2.6c0.3,0,0.5-0.3,0.5-0.5
		C41.4,14.7,41.1,14.5,40.9,14.5z"/>
	<path class="st0" d="M40.2,13.8h0.7c0.3,0,0.5-0.3,0.5-0.5s-0.3-0.5-0.5-0.5h-0.7c-0.3,0-0.5,0.3-0.5,0.5
		C39.7,13.6,40,13.8,40.2,13.8z"/>
	<path class="st0" d="M31.4,17.2c0.3,0,0.5-0.3,0.5-0.5c0-1.6,1.3-2.9,2.9-2.9h2.8c0.3,0,0.5-0.3,0.5-0.5s-0.3-0.5-0.5-0.5h-2.8
		c-2.1,0-3.9,1.8-3.9,3.9C30.9,16.9,31.2,17.2,31.4,17.2z"/>
	<path class="st0" d="M40.9,43.3h-1.2V32.7c0-0.3-0.3-0.5-0.5-0.5h-3.4l-0.6-11.8c0.2-0.1,0.3-0.3,0.3-0.4v-1.7
		c0-0.3-0.3-0.5-0.5-0.5h-5.6c-0.3,0-0.5,0.3-0.5,0.5V20c0,0.2,0.1,0.3,0.3,0.4l-0.6,11.8h-6.7v-2.3H23c0.3,0,0.5-0.3,0.5-0.5v-1.7
		c0-0.3-0.3-0.5-0.5-0.5H8.7c-0.3,0-0.5,0.3-0.5,0.5v1.7c0,0.3,0.3,0.5,0.5,0.5h1.2v13.4H8.7c-0.3,0-0.5,0.2-0.5,0.5v1.7
		c0,0.3,0.3,0.5,0.5,0.5h32.2c0.3,0,0.5-0.3,0.5-0.5v-1.7C41.4,43.5,41.1,43.3,40.9,43.3z M29.9,18.8h4.6v0.7h-4.6
		C29.9,19.4,29.9,18.8,29.9,18.8z M30.2,20.4h4l0.6,11.7h-5.2L30.2,20.4z M38.7,33.2v10.1H22V33.2H38.7z M9.2,28.2h13.5v0.7H9.2
		V28.2z M10.9,29.9H21v13.4h-2.9v-5.1c0-0.3-0.3-0.5-0.5-0.5h-3.4c-0.3,0-0.5,0.3-0.5,0.5v5.1h-2.9L10.9,29.9L10.9,29.9z M17.2,43.3
		h-2.3v-4.6h2.3V43.3z M40.4,45H9.2v-0.7h31.2V45L40.4,45z"/>
	<path class="st0" d="M15.2,36.2h1.7c0.3,0,0.5-0.3,0.5-0.5V34c0-0.3-0.3-0.5-0.5-0.5h-1.7c-0.3,0-0.5,0.3-0.5,0.5l0,0v1.7
		C14.7,36,14.8,36.2,15.2,36.2z M15.7,34.5h0.7v0.7h-0.7V34.5z"/>
	<path class="st0" d="M24,39.5h1.7c0.3,0,0.5-0.3,0.5-0.5v-1.7c0-0.3-0.3-0.5-0.5-0.5H24c-0.3,0-0.5,0.3-0.5,0.5V39
		C23.5,39.4,23.8,39.5,24,39.5L24,39.5z M24.5,37.9h0.7v0.7h-0.7V37.9L24.5,37.9z"/>
	<path class="st0" d="M29.5,39.5h1.7c0.3,0,0.5-0.3,0.5-0.5l0,0v-1.7c0-0.3-0.3-0.5-0.5-0.5h-1.7c-0.3,0-0.5,0.3-0.5,0.5V39
		C29.1,39.4,29.2,39.5,29.5,39.5L29.5,39.5z M30,37.9h0.7v0.7H30V37.9z"/>
	<path class="st0" d="M35,39.5h1.7c0.3,0,0.5-0.3,0.5-0.5l0,0v-1.7c0-0.3-0.3-0.5-0.5-0.5H35c-0.3,0-0.5,0.3-0.5,0.5V39
		C34.5,39.4,34.8,39.5,35,39.5L35,39.5z M35.5,37.9h0.7v0.7h-0.7V37.9z"/>
</g>
</svg>
