<?xml version="1.0" encoding="utf-8"?>
<!-- Generator: Adobe Illustrator 24.0.1, SVG Export Plug-In . SVG Version: 6.00 Build 0)  -->
<svg version="1.1" id="Layer_1" xmlns="http://www.w3.org/2000/svg" xmlns:xlink="http://www.w3.org/1999/xlink" x="0px" y="0px"
	 viewBox="0 0 50 50" style="enable-background:new 0 0 50 50;" xml:space="preserve">
<style type="text/css">
	.st0{fill:#333333;}
</style>
<g>
	<path class="st0" d="M33.8,16.5c0-0.3-0.3-0.5-0.5-0.5s-0.5,0.3-0.5,0.5l0,0l0.1,1.6c0,0.3,0.3,0.5,0.5,0.5l0,0
		c0.3,0,0.5-0.3,0.5-0.5l0,0L33.8,16.5z"/>
	<path class="st0" d="M34.8,6.5c-1.2,0-2.2,1-2.2,2.2c0,0.3,0.3,0.5,0.5,0.5s0.5-0.3,0.5-0.5c0-0.7,0.5-1.2,1.2-1.2h1.5
		c0.3,0,0.5-0.3,0.5-0.5s-0.3-0.5-0.5-0.5L34.8,6.5L34.8,6.5z"/>
	<path class="st0" d="M40.9,6.5h-2.6c-0.3,0-0.5,0.3-0.5,0.5s0.3,0.5,0.5,0.5h2.6c0.3,0,0.5-0.3,0.5-0.5C41.4,6.7,41.1,6.5,40.9,6.5
		z"/>
	<path class="st0" d="M40.2,5.8h0.7c0.3,0,0.5-0.3,0.5-0.5s-0.3-0.5-0.5-0.5h-0.7c-0.3,0-0.5,0.3-0.5,0.5C39.7,5.6,40,5.8,40.2,5.8z
		"/>
	<path class="st0" d="M31.4,9.2c0.3,0,0.5-0.3,0.5-0.5c0-1.6,1.3-2.9,2.9-2.9h2.8c0.3,0,0.5-0.3,0.5-0.5s-0.3-0.5-0.5-0.5h-2.8
		c-2.1,0-3.9,1.8-3.9,3.9C30.9,8.9,31.2,9.2,31.4,9.2z"/>
	<path class="st0" d="M40.9,35.3h-1.2V24.7c0-0.3-0.3-0.5-0.5-0.5h-3.4l-0.6-11.8c0.2-0.1,0.3-0.3,0.3-0.4v-1.7
		c0-0.3-0.3-0.5-0.5-0.5h-5.6c-0.3,0-0.5,0.3-0.5,0.5V12c0,0.2,0.1,0.3,0.3,0.4l-0.6,11.8h-6.7v-2.3H23c0.3,0,0.5-0.3,0.5-0.5v-1.7
		c0-0.3-0.3-0.5-0.5-0.5H8.7c-0.3,0-0.5,0.3-0.5,0.5v1.7c0,0.3,0.3,0.5,0.5,0.5h1.2v13.4H8.7c-0.3,0-0.5,0.2-0.5,0.5v1.7
		c0,0.3,0.3,0.5,0.5,0.5h32.2c0.3,0,0.5-0.3,0.5-0.5v-1.7C41.4,35.5,41.1,35.3,40.9,35.3z M29.9,10.8h4.6v0.7h-4.6
		C29.9,11.4,29.9,10.8,29.9,10.8z M30.2,12.4h4l0.6,11.7h-5.2L30.2,12.4z M38.7,25.2v10.1H22V25.2H38.7z M9.2,20.2h13.5v0.7H9.2
		V20.2z M10.9,21.9H21v13.4h-2.9v-5.1c0-0.3-0.3-0.5-0.5-0.5h-3.4c-0.3,0-0.5,0.3-0.5,0.5v5.1h-2.9L10.9,21.9L10.9,21.9z M17.2,35.3
		h-2.3v-4.6h2.3V35.3z M40.4,37H9.2v-0.7h31.2V37L40.4,37z"/>
	<path class="st0" d="M15.2,28.2h1.7c0.3,0,0.5-0.3,0.5-0.5V26c0-0.3-0.3-0.5-0.5-0.5h-1.7c-0.3,0-0.5,0.3-0.5,0.5l0,0v1.7
		C14.7,28,14.8,28.2,15.2,28.2z M15.7,26.5h0.7v0.7h-0.7V26.5z"/>
	<path class="st0" d="M24,31.5h1.7c0.3,0,0.5-0.3,0.5-0.5v-1.7c0-0.3-0.3-0.5-0.5-0.5H24c-0.3,0-0.5,0.3-0.5,0.5V31
		C23.5,31.4,23.8,31.5,24,31.5L24,31.5z M24.5,29.9h0.7v0.7h-0.7V29.9L24.5,29.9z"/>
	<path class="st0" d="M29.5,31.5h1.7c0.3,0,0.5-0.3,0.5-0.5l0,0v-1.7c0-0.3-0.3-0.5-0.5-0.5h-1.7c-0.3,0-0.5,0.3-0.5,0.5V31
		C29.1,31.4,29.2,31.5,29.5,31.5L29.5,31.5z M30,29.9h0.7v0.7H30V29.9z"/>
	<path class="st0" d="M35,31.5h1.7c0.3,0,0.5-0.3,0.5-0.5l0,0v-1.7c0-0.3-0.3-0.5-0.5-0.5H35c-0.3,0-0.5,0.3-0.5,0.5V31
		C34.5,31.4,34.8,31.5,35,31.5L35,31.5z M35.5,29.9h0.7v0.7h-0.7V29.9z"/>
</g>
</svg>
