<?xml version="1.0" encoding="utf-8"?>
<!-- Generator: Adobe Illustrator 24.0.1, SVG Export Plug-In . SVG Version: 6.00 Build 0)  -->
<svg version="1.1" id="Layer_1" xmlns="http://www.w3.org/2000/svg" xmlns:xlink="http://www.w3.org/1999/xlink" x="0px" y="0px"
	 viewBox="0 0 50 50" style="enable-background:new 0 0 50 50;" xml:space="preserve">
<style type="text/css">
	.st0{fill:#333333;}
</style>
<path class="st0" d="M7.3,32c0,0.2,0.2,0.5,0.5,0.6L9.9,33c0.1,0.4,0.1,0.7,0.2,1.1l-1.5,1.5c-0.2,0-0.4,0.4-0.1,0.6
	c0.4,0.6,0.7,1.2,0.9,1.6c0.1,0.2,0.4,0.4,0.7,0.2l2-0.7c0.2,0.2,0.5,0.6,0.7,0.7l-0.7,2c-0.1,0.2,0,0.5,0.2,0.7
	c0.5,0.4,1.1,0.7,1.6,0.9c0.2,0.1,0.5,0.1,0.7-0.1l1.5-1.5c0.4,0.1,0.7,0.2,1.1,0.2l0.5,2.1c0.1,0.2,0.2,0.5,0.6,0.5
	s0.7,0.1,0.9,0.1s0.7,0,0.9-0.1c0.2,0,0.5-0.2,0.6-0.5l0.5-2.1c0.4-0.1,0.7-0.1,1.1-0.2l1.5,1.5c0.1,0.1,0.5,0.2,0.7,0.1
	c0.6-0.4,1.2-0.7,1.6-0.9c0.2-0.1,0.4-0.4,0.2-0.7l-0.5-2c0.2-0.2,0.6-0.5,0.7-0.7l2,0.7c0.2,0.1,0.5,0,0.7-0.2
	c0.4-0.5,0.7-1.1,0.9-1.6c0.1-0.2,0.1-0.5-0.1-0.7L28.8,34c0.1-0.4,0.2-0.7,0.2-1.1l2.1-0.5c0.2-0.1,0.5-0.2,0.5-0.6
	s0.1-0.7,0.1-0.9c0-0.2,0-0.7-0.1-0.9c0-0.2-0.2-0.5-0.5-0.6l-2.4-0.2c-0.1-0.4-0.1-0.7-0.2-1.1l1.5-1.5c0.1-0.1,0.2-0.5,0.1-0.7
	c-0.4-0.6-0.7-1.2-0.9-1.6c-0.1-0.2-0.4-0.4-0.7-0.2l-2,0.7c-0.2-0.2-0.5-0.6-0.7-0.7l0.7-2c0.1-0.2,0-0.5-0.2-0.7
	c-0.5-0.4-1.1-0.7-1.6-0.9c-0.2-0.1-0.5-0.1-0.7,0.1l-1.5,1.6c-0.4-0.1-0.7-0.2-1.1-0.2l-0.6-2.5c-0.1-0.2-0.2-0.5-0.6-0.5
	c-0.7-0.1-1.3-0.1-2,0c-0.2,0-0.5,0.2-0.6,0.5l-0.4,2.1c-0.4,0.1-0.7,0.1-1.1,0.2l-1.5-1.5c-0.1-0.1-0.5-0.2-0.7-0.1
	c-0.6,0.4-1.2,0.7-1.6,0.9c-0.2,0.1-0.4,0.4-0.2,0.7l0.7,2c-0.2,0.2-0.6,0.5-0.7,0.7l-2-0.7c-0.2-0.1-0.5,0-0.7,0.2
	c-0.4,0.5-0.8,1-1,1.6c0.1,0.2,0.1,0.5,0.4,0.7l1.5,1.5c-0.1,0.4-0.1,0.7-0.2,0.9L8,29.2c-0.2,0.1-0.5,0.2-0.5,0.6s-0.1,0.7-0.1,0.9
	C7.2,31.3,7.3,31.6,7.3,32L7.3,32z M8.4,30.6l2-0.4c0.2-0.1,0.4-0.2,0.5-0.5c0.1-0.6,0.2-1.1,0.4-1.6c0.1-0.2,0-0.5-0.1-0.7L9.6,26
	c0.1-0.2,0.4-0.5,0.4-0.7l2,0.7c0.2,0.1,0.5,0,0.7-0.1c0.4-0.4,0.7-0.8,1.2-1.2c0.1-0.1,0.2-0.4,0.1-0.7l-0.7-2
	c0.2-0.1,0.5-0.4,0.7-0.4l1.4,1.5c0.1,0.1,0.4,0.2,0.7,0.1c0.5-0.1,1.1-0.4,1.6-0.4c0.2-0.1,0.4-0.2,0.5-0.5l0.4-2
	c0.2,0,0.6,0,0.8,0l0.4,2c0.1,0.2,0.2,0.4,0.5,0.5c0.6,0.1,1.1,0.2,1.6,0.4c0.2,0.1,0.5,0,0.7-0.1l1.4-1.5c0.2,0.1,0.5,0.2,0.7,0.4
	L24,24c-0.1,0.2,0,0.5,0.1,0.7c0.4,0.4,0.8,0.7,1.2,1.2c0.1,0.1,0.4,0.2,0.7,0.1l2-0.7c0.1,0.2,0.4,0.5,0.4,0.7L27,27.4
	c-0.1,0.1-0.2,0.4-0.1,0.7c0.1,0.5,0.4,1.1,0.4,1.6c0.1,0.2,0.2,0.4,0.5,0.5l2,0.4c0,0.1,0,0.4,0,0.4v0.4l-2,0.5
	c-0.2,0.1-0.4,0.2-0.5,0.5c-0.1,0.6-0.2,1.1-0.4,1.6c-0.1,0.2,0,0.5,0.1,0.7l1.5,1.4c-0.1,0.2-0.2,0.5-0.4,0.7l-2-0.7
	c-0.2-0.1-0.5,0-0.7,0.1c-0.4,0.4-0.7,0.8-1.2,1.2c-0.1,0.1-0.2,0.4-0.1,0.7l0.7,2c-0.2,0.1-0.5,0.4-0.7,0.4L22.7,39
	c-0.1-0.1-0.4-0.2-0.7-0.1c-0.5,0.1-1.1,0.4-1.6,0.4c-0.2,0.1-0.4,0.2-0.5,0.5l-0.4,2c-0.2,0-0.6,0-0.8,0l-0.4-2
	c-0.1-0.2-0.2-0.4-0.5-0.5c-0.6-0.1-1.1-0.2-1.6-0.4c-0.2-0.1-0.5,0-0.7,0.1l-1.4,1.5c-0.2-0.1-0.5-0.2-0.7-0.4l0.7-2
	c0.1-0.2,0-0.5-0.1-0.7c-0.4-0.4-0.8-0.7-1.2-1.2C12.6,36,12.4,35.9,12,36l-1.9,0.8c-0.1-0.2-0.4-0.5-0.4-0.7l1.5-1.4
	c0.1-0.1,0.2-0.4,0.1-0.7c-0.1-0.5-0.4-1.1-0.4-1.6c-0.1-0.2-0.2-0.4-0.5-0.5l-2-0.4c0-0.1,0-0.4,0-0.4S8.4,30.7,8.4,30.6z"/>
<path class="st0" d="M38.8,15.4c0.2-0.1,0.4-0.2,0.4-0.5c0-0.4,0.1-0.6,0.1-0.8s0-0.6-0.1-0.8c0-0.2-0.1-0.4-0.4-0.5l-1.6-0.6
	C37,12.1,37,12,37,11.9l0.8-1.5c0.1-0.2,0.1-0.5-0.1-0.7c-0.4-0.4-0.7-0.8-1.2-1.2c-0.1-0.1-0.4-0.1-0.7-0.1l-1.5,0.8
	C34.2,9,34.1,9,33.9,9l-0.5-1.6C33.3,7.2,33.2,7,33,7c-0.6-0.1-1.1-0.1-1.6,0c-0.2,0-0.4,0.1-0.5,0.4l-0.7,1.5C30.1,9,29.9,9,29.8,9
	l-1.5-0.8c-0.2-0.1-0.5-0.1-0.7,0.1c-0.4,0.4-0.8,0.7-1.2,1.2c-0.1,0.1-0.1,0.4-0.1,0.7l0.8,1.5C27,11.9,27,12,27,12.1l-1.6,0.5
	C25.1,12.7,25,12.8,25,13c0,0.4-0.1,0.6-0.1,0.8s0,0.6,0.1,0.8c0,0.2,0.1,0.4,0.4,0.5l1.6,0.5c0.1,0.1,0.1,0.2,0.1,0.4l-0.8,1.5
	c-0.1,0.2-0.1,0.5,0.1,0.7c0.4,0.4,0.7,0.8,1.2,1.2c0.1,0.1,0.4,0.1,0.7,0.1l1.5-0.8c0.1,0.1,0.2,0.1,0.4,0.1l0.5,1.6
	c0.1,0.2,0.2,0.4,0.5,0.4c0.4,0,0.6,0.1,0.8,0.1s0.6,0,0.8-0.1c0.2,0,0.4-0.1,0.5-0.4l0.5-1.6c0.1-0.1,0.2-0.1,0.4-0.1l1.5,0.8
	c0.2,0.1,0.5,0.1,0.7-0.1c0.4-0.4,0.8-0.7,1.2-1.2c0.1-0.1,0.1-0.4,0.1-0.7L36.8,16c0.1-0.1,0.1-0.2,0.1-0.4L38.8,15.4z M36.4,14.9
	C36.3,15,36,15.1,36,15.3c-0.1,0.2-0.1,0.6-0.4,0.8c-0.1,0.1-0.1,0.4,0,0.6l0.7,1.5c-0.1,0.1-0.4,0.4-0.5,0.5L34.4,18
	c-0.1-0.1-0.4-0.1-0.6,0c-0.2,0.1-0.5,0.2-0.8,0.4c-0.1,0.1-0.4,0.2-0.4,0.4l-0.5,1.5c-0.2,0-0.4,0-0.7,0L31,18.7
	c-0.1-0.1-0.2-0.4-0.4-0.4c-0.2-0.1-0.6-0.1-0.8-0.4c-0.1-0.1-0.4-0.1-0.6,0l-1.5,0.7c-0.1-0.1-0.4-0.4-0.5-0.5l0.7-1.5
	c0.1-0.1,0.1-0.4,0-0.6c-0.1-0.2-0.2-0.5-0.4-0.8c-0.1-0.1-0.2-0.4-0.4-0.4l-1.5-0.5c0-0.1,0-0.2,0-0.4s0-0.2,0-0.4l1.5-0.5
	c0.1-0.1,0.4-0.2,0.4-0.4c0.1-0.2,0.1-0.6,0.4-0.8c0.1-0.1,0.1-0.4,0-0.6l-0.5-1.4c0.1-0.1,0.4-0.4,0.5-0.5l1.5,0.7
	c0.1,0.1,0.4,0.1,0.6,0s0.5-0.2,0.8-0.4c0.1-0.1,0.4-0.2,0.4-0.4l0.5-1.5c0.2,0,0.4,0,0.7,0l0.5,1.5C33,9.7,33.1,10,33.2,10
	c0.2,0.1,0.6,0.1,0.8,0.4c0.1,0.1,0.4,0.1,0.6,0l1.5-0.7c0.1,0.1,0.4,0.4,0.5,0.5l-0.7,1.5c-0.1,0.1-0.1,0.4,0,0.6
	c0.1,0.2,0.2,0.5,0.4,0.8c0.1,0.1,0.2,0.4,0.4,0.4l1.5,0.5c0,0.1,0,0.2,0,0.4s0,0.2,0,0.4L36.4,14.9z"/>
<path class="st0" d="M43,26.7l-1.1-0.5c-0.1-0.1-0.1-0.4-0.2-0.5l0.5-0.9c0.1-0.2,0.1-0.5-0.1-0.7c-0.4-0.4-0.7-0.7-1.1-1.1
	c-0.1-0.1-0.4-0.1-0.7-0.1l-0.9,0.5c-0.1-0.1-0.4-0.1-0.5-0.2l-0.1-0.8c-0.1-0.2-0.2-0.4-0.5-0.4c-0.6-0.1-0.9-0.1-1.5,0
	c-0.2,0-0.4,0.1-0.5,0.4l-0.4,1.1c-0.1,0.1-0.4,0.1-0.5,0.2l-0.9-0.5c-0.2-0.1-0.5-0.1-0.7,0.1c-0.4,0.4-0.7,0.7-1.1,1.1
	c-0.1,0.1-0.1,0.4-0.1,0.7l0.5,0.9c-0.1,0.1-0.1,0.4-0.2,0.5l-1.1,0.4c-0.2,0.1-0.4,0.2-0.4,0.5c0,0.2-0.1,0.5-0.1,0.7
	s0,0.5,0.1,0.7c0,0.2,0.1,0.4,0.4,0.5l1.1,0.4c0.1,0.1,0.1,0.4,0.2,0.5l-0.6,1.3c-0.1,0.2-0.1,0.5,0.1,0.7c0.4,0.4,0.7,0.7,1.1,1.1
	c0.1,0.1,0.4,0.1,0.7,0.1l0.9-0.5c0.1,0.1,0.4,0.1,0.5,0.2l0.4,1.1c0.1,0.2,0.2,0.4,0.5,0.4c0.2,0,0.5,0.1,0.7,0.1s0.5,0,0.7-0.1
	c0.2,0,0.4-0.1,0.5-0.4l0.4-1.1c0.1-0.1,0.4-0.1,0.5-0.2l0.9,0.5c0.2,0.1,0.5,0.1,0.7-0.1c0.4-0.4,0.7-0.7,1.1-1.1
	c0.1-0.1,0.1-0.4,0.1-0.7l-0.2-0.9c0.1-0.1,0.1-0.4,0.2-0.5l1.1-0.4c0.2-0.1,0.4-0.2,0.4-0.5c0-0.2,0.1-0.5,0.1-0.7s0-0.5-0.1-0.7
	C43.4,27,43.2,26.7,43,26.7L43,26.7z M42.2,28.1l-0.9,0.4c-0.1,0.1-0.4,0.2-0.4,0.4c-0.1,0.4-0.1,0.6-0.4,0.8
	c-0.1,0.1-0.1,0.4,0,0.6l0.4,0.9c-0.1,0.1-0.2,0.2-0.4,0.4l-0.9-0.4c-0.1-0.1-0.4-0.1-0.6,0s-0.5,0.2-0.8,0.4
	c-0.1,0-0.4,0.1-0.4,0.4l-0.4,0.9c-0.1,0-0.4,0-0.4,0L36.6,32c-0.1-0.1-0.2-0.4-0.4-0.4c-0.4-0.1-0.6-0.1-0.8-0.4
	c-0.1-0.1-0.4-0.1-0.6,0l-0.9,0.4c-0.1-0.1-0.2-0.2-0.4-0.4l0.4-0.9c0.1-0.1,0.1-0.4,0-0.6s-0.2-0.5-0.4-0.8
	c-0.1-0.1-0.1-0.4-0.4-0.4l-0.8-0.4c0-0.1,0-0.1,0-0.2s0-0.1,0-0.2l0.9-0.4c0.1-0.1,0.4-0.2,0.4-0.4c0.1-0.4,0.1-0.6,0.4-0.8
	c0.1-0.1,0.1-0.4,0-0.6l-0.4-0.8c0.1-0.1,0.2-0.2,0.4-0.4l0.9,0.4c0.1,0.1,0.4,0.1,0.6,0c0.2-0.1,0.5-0.2,0.8-0.4
	c0.1-0.1,0.4-0.1,0.4-0.4l0.4-0.9c0.1,0,0.4,0,0.4,0l0.4,0.9c0.1,0.1,0.2,0.4,0.4,0.4c0.4,0.1,0.6,0.1,0.8,0.4
	c0.1,0.1,0.4,0.1,0.6,0l0.9-0.4c0.1,0.1,0.2,0.2,0.4,0.4l-0.4,0.9c-0.1,0.1-0.1,0.4,0,0.6s0.2,0.5,0.4,0.8c0.1,0.1,0.1,0.4,0.4,0.4
	l0.9,0.4c0,0.1,0,0.1,0,0.2S42.2,28.1,42.2,28.1L42.2,28.1z"/>
<path class="st0" d="M19.3,37.6c3.6,0,6.7-2.9,6.7-6.7c0-3.6-2.9-6.7-6.7-6.7s-6.7,3.1-6.7,6.7C12.6,34.6,15.6,37.6,19.3,37.6z
	 M19.3,25.5c2.9,0,5.4,2.5,5.4,5.4s-2.5,5.4-5.4,5.4s-5.4-2.5-5.4-5.4S16.3,25.5,19.3,25.5z"/>
<path class="st0" d="M32.1,11c-1.6,0-3.1,1.3-3.1,3.1s1.3,3.1,3.1,3.1c1.6,0,3.1-1.3,3.1-3.1C35,12.3,33.7,11,32.1,11z M32.1,15.9
	c-0.9,0-1.8-0.8-1.8-1.8s0.8-1.8,1.8-1.8c0.9,0,1.8,0.8,1.8,1.8S33,15.9,32.1,15.9z"/>
<path class="st0" d="M37.5,25.5c-1.3,0-2.4,1.1-2.4,2.4s1.1,2.4,2.4,2.4s2.4-1.1,2.4-2.4S38.8,25.5,37.5,25.5z M37.5,29.2
	c-0.7,0-1.2-0.6-1.2-1.2c0-0.7,0.6-1.2,1.2-1.2s1.2,0.6,1.2,1.2C38.6,28.6,38.1,29.2,37.5,29.2z"/>
</svg>
